<svg xmlns="http://www.w3.org/2000/svg" viewBox="0 0 209.77 12.82"><title>资源 1</title><path d="M35.83,12.41V2.69h3.28c3,0,4.66,2.14,4.66,4.86s-1.69,4.86-4.67,4.86Zm3-.95c2.45,0,3.85-1.34,3.85-3.91s-1.46-3.91-3.8-3.91h-2v7.82Z" fill="#ccc"/><path d="M46.48,2.69h5.86v1H47.55V7h4.17V8H47.55v3.47h4.91v.95h-6Z" fill="#ccc"/><path d="M56.58,2.69l3.56,7,3.52-7h1.27l.4,9.72H64.24l-.32-8.14-3.41,6.86h-.79L56.25,4.26l-.31,8.15h-1l.39-9.72Z" fill="#ccc"/><path d="M73.9,9.71H69.53l-1,2.7h-1.1L71.1,2.69h1.26l3.72,9.72H74.92Zm-.34-.93L71.7,3.83,69.87,8.78Z" fill="#ccc"/><path d="M79.36,12.41h-1V2.69h1.23l5.38,8.18V2.69h1v9.72H84.71L79.35,4.26Z" fill="#ccc"/><path d="M89.32,12.41V2.69h3.27c3,0,4.66,2.14,4.66,4.86s-1.68,4.86-4.67,4.86Zm3-.95c2.46,0,3.86-1.34,3.86-3.91s-1.46-3.91-3.8-3.91h-2v7.82Z" fill="#ccc"/><polyline points="0.35 12.46 5.46 7.36 10.49 7.79 16.26 1.21 20.91 0.55 27.08 12.46" fill="none" stroke="#ff7d41" stroke-miterlimit="10" opacity="0.8"/><path d="M161.12,11.58c1.31,0,2.35-.58,2.35-1.71,0-2.57-5.34-1.16-5.34-4.59,0-1.73,1.38-2.73,3.2-2.73a5.21,5.21,0,0,1,3,1l-.49.77a4.52,4.52,0,0,0-2.48-.79c-1.2,0-2.19.59-2.19,1.69,0,2.56,5.35,1.11,5.35,4.58,0,1.87-1.55,2.78-3.4,2.78a5.37,5.37,0,0,1-3.3-1.12l.5-.79A4.58,4.58,0,0,0,161.12,11.58Z" fill="#ccc"/><path d="M173.46,2.69h1.06V9a3.74,3.74,0,0,1-7.47,0V2.69h1.09V9a2.66,2.66,0,0,0,5.32,0Z" fill="#ccc"/><path d="M178.84,12.41h-1.07V2.69h3.46a2.92,2.92,0,0,1,3.2,3,3,3,0,0,1-3.19,3.12h-2.4ZM181,7.86c1.51,0,2.36-.8,2.36-2.13s-.87-2.09-2.36-2.09h-2.15V7.86Z" fill="#ccc"/><path d="M188,12.41H186.9V2.69h3.45a2.92,2.92,0,0,1,3.21,3,3,3,0,0,1-3.19,3.12H188Zm2.16-4.55a2.05,2.05,0,0,0,2.35-2.13c0-1.34-.86-2.09-2.35-2.09H188V7.86Z" fill="#ccc"/><path d="M196,2.69h1.08v8.77h4.63v.95H196Z" fill="#ccc"/><path d="M206.2,8.33v4.08h-1.07V8.32l-3.48-5.63h1.26l2.79,4.58,2.88-4.58h1.19Z" fill="#ccc"/><polyline points="123.2 12.46 128.31 7.36 133.34 7.79 139.11 1.21 143.76 0.55 149.93 12.46" fill="none" stroke="#1d99ff" stroke-miterlimit="10" opacity="0.8"/></svg>